<?xml version="1.0" encoding="UTF-8" standalone="no"?>
<svg
   xmlns:dc="http://purl.org/dc/elements/1.1/"
   xmlns:cc="http://creativecommons.org/ns#"
   xmlns:rdf="http://www.w3.org/1999/02/22-rdf-syntax-ns#"
   xmlns:svg="http://www.w3.org/2000/svg"
   xmlns="http://www.w3.org/2000/svg"
   version="1.1"
   id="svg2"
   viewBox="0 0 881.90089 881.90089"
   height="248.89203mm"
   width="248.89203mm">
  <defs
     id="defs4" />
  <metadata
     id="metadata7">
    <rdf:RDF>
      <cc:Work
         rdf:about="">
        <dc:format>image/svg+xml</dc:format>
        <dc:type
           rdf:resource="http://purl.org/dc/dcmitype/StillImage" />
        <dc:title></dc:title>
      </cc:Work>
    </rdf:RDF>
  </metadata>
  <g
     transform="translate(749.61572,259.4653)"
     id="layer1">
    <rect
       y="-259.4653"
       x="-749.61572"
       height="881.90088"
       width="881.90088"
       id="rect4422"
       style="color:#000000;clip-rule:nonzero;display:inline;overflow:visible;visibility:visible;opacity:0;isolation:auto;mix-blend-mode:normal;color-interpolation:sRGB;color-interpolation-filters:linearRGB;solid-color:#000000;solid-opacity:1;fill:#ffffff;fill-opacity:1;fill-rule:nonzero;stroke:none;stroke-width:10;stroke-linecap:butt;stroke-linejoin:miter;stroke-miterlimit:4;stroke-dasharray:none;stroke-dashoffset:0;stroke-opacity:0.82745098;color-rendering:auto;image-rendering:auto;shape-rendering:auto;text-rendering:auto;enable-background:accumulate" />
    <g
       transform="matrix(19.795532,0,0,19.795532,-545.22189,-57.79336)"
       id="g4385">
      <path
         d="m 16.9,7.1 c -0.4,-0.4 -1,-0.4 -1.4,0 l -8.4,8.4 c -0.4,0.4 -0.4,1 0,1.4 0.4,0.4 1,0.4 1.4,0 l 8.4,-8.4 c 0.4,-0.4 0.4,-1 0,-1.4 z"
         id="path4387" />
      <path
         d="M 8.5,22.5 12,19 c 1.4,-1.4 1.8,-3.5 1.1,-5.3 l -1.7,1.7 c 0,0.8 -0.2,1.6 -0.9,2.3 L 7,21.2 C 5.8,22.4 3.9,22.4 2.8,21.2 1.6,20 1.6,18.1 2.8,17 l 3.5,-3.5 c 0.6,-0.6 1.5,-0.9 2.3,-0.9 l 1.7,-1.7 C 8.5,10.2 6.4,10.5 5,12 l -3.5,3.5 c -1.9,1.9 -1.9,5.1 0,7 1.9,2 5.1,2 7,0 z"
         id="path4389" />
      <path
         d="m 13.4,6.4 3.5,-3.5 c 1.2,-1.2 3.1,-1.2 4.2,0 1.1,1.2 1.2,3.1 0,4.2 l -3.5,3.5 c -0.6,0.6 -1.5,0.9 -2.3,0.9 l -1.7,1.7 c 1.8,0.7 3.9,0.3 5.3,-1.1 l 3.5,-3.5 c 1.9,-1.9 1.9,-5.1 0,-7 -1.9,-1.9 -5.1,-1.9 -7,0 L 12,5 c -1.4,1.4 -1.8,3.5 -1.1,5.3 L 12.6,8.6 C 12.5,7.8 12.8,7 13.4,6.4 Z"
         id="path4391" />
    </g>
  </g>
</svg>
